<svg width="253" height="66" viewBox="0 0 253 66" fill="none" xmlns="http://www.w3.org/2000/svg">
<path d="M64.7943 15.0908L64.7943 64.1468C64.7943 64.7645 64.4855 65.0733 63.8678 65.0733H20.3648C16.4747 65.0733 12.9886 64.1765 9.90623 62.3889C6.81795 60.6012 4.40079 58.1306 2.63691 54.9829C0.87897 51.8353 0 48.2897 0 44.3403L0 15.0908C0 14.4731 0.308827 14.1643 0.926481 14.1643L19.4383 14.1643C20.0559 14.1643 20.3648 14.4731 20.3648 15.0908L20.3648 46.5615C20.3648 47.1791 20.6736 47.4879 21.2913 47.4879C21.5348 47.4879 21.7545 47.3929 21.9386 47.2088C22.1227 47.0247 22.2177 46.7753 22.2177 46.4664L22.2177 15.0908C22.2177 14.4731 22.5266 14.1643 23.1442 14.1643L41.656 14.1643C42.2737 14.1643 42.5825 14.4731 42.5825 15.0908L42.5825 46.5615C42.5825 46.8109 42.6775 47.0247 42.8616 47.2088C43.0458 47.3929 43.2596 47.4879 43.509 47.4879C43.7584 47.4879 43.9722 47.3929 44.1563 47.2088C44.3405 47.0247 44.4355 46.8109 44.4355 46.5615L44.4355 15.0908C44.4355 14.4731 44.7443 14.1643 45.362 14.1643L63.8738 14.1643C64.4914 14.1643 64.8003 14.4731 64.8003 15.0908H64.7943Z" fill="#141414"/>
<path d="M78.8164 62.4843C74.772 60.1384 71.5827 56.9432 69.2368 52.9047C66.8909 48.8662 65.7209 44.4357 65.7209 39.6251C65.7209 34.8145 66.8909 30.384 69.2368 26.3396C71.5827 22.3011 74.772 19.1059 78.8164 16.76C82.8549 14.4141 87.2854 13.2441 92.1019 13.2441C96.9184 13.2441 101.343 14.4141 105.387 16.76C109.426 19.1059 112.621 22.3011 114.967 26.3396C117.313 30.384 118.483 34.8086 118.483 39.6251C118.483 44.4416 117.313 48.8662 114.967 52.9047C112.621 56.9491 109.426 60.1384 105.387 62.4843C101.343 64.8302 96.9184 66.0001 92.1019 66.0001C87.2854 66.0001 82.8609 64.8302 78.8164 62.4843Z" fill="#141414"/>
<path d="M184.198 15.0908V64.1468C184.198 64.7645 183.889 65.0733 183.271 65.0733H139.768C135.878 65.0733 132.392 64.1765 129.31 62.3889C126.221 60.6012 123.804 58.1306 122.04 54.9829C120.282 51.8353 119.403 48.2897 119.403 44.3403V15.0908C119.403 14.4731 119.712 14.1643 120.33 14.1643L138.842 14.1643C139.459 14.1643 139.768 14.4731 139.768 15.0908V46.5615C139.768 47.1791 140.077 47.4879 140.695 47.4879C140.938 47.4879 141.158 47.3929 141.342 47.2088C141.526 47.0247 141.621 46.7753 141.621 46.4664V15.0908C141.621 14.4731 141.93 14.1643 142.548 14.1643L161.059 14.1643C161.677 14.1643 161.986 14.4731 161.986 15.0908V46.5615C161.986 46.8109 162.081 47.0247 162.265 47.2088C162.449 47.3929 162.663 47.4879 162.912 47.4879C163.162 47.4879 163.376 47.3929 163.56 47.2088C163.744 47.0247 163.839 46.8109 163.839 46.5615V15.0908C163.839 14.4731 164.148 14.1643 164.765 14.1643L183.277 14.1643C183.895 14.1643 184.204 14.4731 184.204 15.0908H184.198Z" fill="#141414"/>
<path d="M186.971 0.278564L207.336 0.278564C207.954 0.278564 208.263 0.587392 208.263 1.20505V14.1639L217.521 14.1639C218.139 14.1639 218.448 14.4727 218.448 15.0904V29.2549C218.448 30.3061 218.08 31.1969 217.337 31.9393L203.363 45.9137C203.179 46.0978 203.084 46.3176 203.084 46.5611C203.084 46.8046 203.179 47.0243 203.363 47.2084L203.458 47.3034C203.642 47.4875 203.856 47.5826 204.105 47.5826C204.355 47.5826 204.569 47.4875 204.753 47.3034L216.138 35.9184C216.447 35.6096 216.785 35.4552 217.153 35.4552C217.521 35.4552 217.83 35.5799 218.08 35.8234C218.323 36.0728 218.448 36.4113 218.448 36.8389V64.1464C218.448 64.764 218.139 65.0729 217.521 65.0729H210.49C202.282 65.0729 196.159 63.0536 192.114 59.0092C188.07 54.9707 186.051 48.8416 186.051 40.634V1.20505C186.051 0.587392 186.36 0.278564 186.977 0.278564H186.971Z" fill="#141414"/>
<path d="M227.332 63.7547C224.755 62.2581 222.718 60.221 221.221 57.6435C219.725 55.066 218.976 52.239 218.976 49.1745C218.976 46.11 219.725 43.283 221.221 40.7055C222.718 38.128 224.755 36.0909 227.332 34.5943C229.91 33.0977 232.731 32.3494 235.801 32.3494C238.872 32.3494 241.693 33.0977 244.27 34.5943C246.848 36.0909 248.885 38.128 250.382 40.7055C251.878 43.283 252.627 46.11 252.627 49.1745C252.627 52.239 251.878 55.066 250.382 57.6435C248.885 60.221 246.848 62.2581 244.27 63.7547C241.693 65.2513 238.866 65.9996 235.801 65.9996C232.737 65.9996 229.91 65.2513 227.332 63.7547Z" fill="#141414"/>
<path d="M226.644 31.4053C224.066 29.9087 222.029 27.8717 220.532 25.2941C219.036 22.7166 218.287 19.8897 218.287 16.8251C218.287 13.7606 219.036 10.9337 220.532 8.35615C222.029 5.77863 224.066 3.74156 226.644 2.24494C229.221 0.748312 232.042 0 235.113 0C238.183 0 241.004 0.748312 243.582 2.24494C246.159 3.74156 248.196 5.77863 249.693 8.35615C251.189 10.9337 251.938 13.7606 251.938 16.8251C251.938 19.8897 251.189 22.7166 249.693 25.2941C248.196 27.8717 246.159 29.9087 243.582 31.4053C241.004 32.902 238.177 33.6503 235.113 33.6503C232.048 33.6503 229.221 32.902 226.644 31.4053Z" fill="#141414"/>
</svg>
