<svg width="207" height="55" viewBox="0 0 207 55" fill="none" xmlns="http://www.w3.org/2000/svg">
<path d="M53.0919 12.3655V52.5615C53.0919 53.0676 52.8389 53.3207 52.3328 53.3207H16.6867C13.4993 53.3207 10.6427 52.5859 8.11707 51.1211C5.58657 49.6563 3.60597 47.6319 2.16066 45.0528C0.72022 42.4736 0 39.5684 0 36.3323V12.3655C0 11.8594 0.25305 11.6063 0.759151 11.6063H15.9276C16.4337 11.6063 16.6867 11.8594 16.6867 12.3655V38.1523C16.6867 38.6584 16.9398 38.9114 17.4459 38.9114C17.6454 38.9114 17.8254 38.8336 17.9763 38.6827C18.1272 38.5318 18.205 38.3275 18.205 38.0744V12.3655C18.205 11.8594 18.4581 11.6063 18.9642 11.6063H34.1326C34.6387 11.6063 34.8917 11.8594 34.8917 12.3655V38.1523C34.8917 38.3567 34.9696 38.5318 35.1205 38.6827C35.2713 38.8336 35.4465 38.9114 35.6509 38.9114C35.8553 38.9114 36.0305 38.8336 36.1813 38.6827C36.3322 38.5318 36.41 38.3567 36.41 38.1523V12.3655C36.41 11.8594 36.6631 11.6063 37.1692 11.6063H52.3376C52.8437 11.6063 53.0968 11.8594 53.0968 12.3655H53.0919Z" fill="#FBC624"/>
<path d="M64.5814 51.199C61.2674 49.2768 58.6542 46.6587 56.732 43.3495C54.8097 40.0404 53.8511 36.4101 53.8511 32.4684C53.8511 28.5266 54.8097 24.8963 56.732 21.5824C58.6542 18.2732 61.2674 15.6551 64.5814 13.7329C67.8905 11.8107 71.5208 10.8521 75.4674 10.8521C79.414 10.8521 83.0394 11.8107 86.3534 13.7329C89.6626 15.6551 92.2807 18.2732 94.2029 21.5824C96.1251 24.8963 97.0837 28.5218 97.0837 32.4684C97.0837 36.415 96.1251 40.0404 94.2029 43.3495C92.2807 46.6635 89.6626 49.2768 86.3534 51.199C83.0394 53.1212 79.414 54.0799 75.4674 54.0799C71.5208 54.0799 67.8954 53.1212 64.5814 51.199Z" fill="#FBC624"/>
<path d="M150.93 12.3655V52.5615C150.93 53.0676 150.677 53.3207 150.171 53.3207H114.525C111.337 53.3207 108.481 52.5859 105.955 51.1211C103.425 49.6563 101.444 47.6319 99.9987 45.0528C98.5582 42.4736 97.838 39.5684 97.838 36.3323V12.3655C97.838 11.8594 98.0911 11.6063 98.5972 11.6063H113.766C114.272 11.6063 114.525 11.8594 114.525 12.3655V38.1523C114.525 38.6584 114.778 38.9114 115.284 38.9114C115.483 38.9114 115.663 38.8336 115.814 38.6827C115.965 38.5318 116.043 38.3275 116.043 38.0744V12.3655C116.043 11.8594 116.296 11.6063 116.802 11.6063H131.971C132.477 11.6063 132.73 11.8594 132.73 12.3655V38.1523C132.73 38.3567 132.808 38.5318 132.958 38.6827C133.109 38.8336 133.285 38.9114 133.489 38.9114C133.693 38.9114 133.868 38.8336 134.019 38.6827C134.17 38.5318 134.248 38.3567 134.248 38.1523V12.3655C134.248 11.8594 134.501 11.6063 135.007 11.6063H150.176C150.682 11.6063 150.935 11.8594 150.935 12.3655H150.93Z" fill="#FBC624"/>
<path d="M153.203 0.228638H169.889C170.395 0.228638 170.648 0.481688 170.648 0.987789V11.6062H178.235C178.741 11.6062 178.994 11.8592 178.994 12.3653V23.9716C178.994 24.8329 178.692 25.5629 178.084 26.1712L166.634 37.6217C166.483 37.7725 166.405 37.9526 166.405 38.1521C166.405 38.3516 166.483 38.5317 166.634 38.6825L166.712 38.7604C166.862 38.9113 167.038 38.9891 167.242 38.9891C167.446 38.9891 167.622 38.9113 167.772 38.7604L177.101 29.4316C177.354 29.1786 177.632 29.052 177.933 29.052C178.235 29.052 178.488 29.1542 178.692 29.3538C178.892 29.5581 178.994 29.8355 178.994 30.1859V52.5614C178.994 53.0675 178.741 53.3205 178.235 53.3205H172.473C165.748 53.3205 160.731 51.666 157.417 48.352C154.103 45.0429 152.448 40.0208 152.448 33.2955V0.987789C152.448 0.481688 152.701 0.228638 153.207 0.228638H153.203Z" fill="#FBC624"/>
<path d="M186.274 52.2403C184.162 51.014 182.493 49.3449 181.267 47.2329C180.04 45.1209 179.427 42.8045 179.427 40.2935C179.427 37.7824 180.04 35.466 181.267 33.354C182.493 31.242 184.162 29.5729 186.274 28.3466C188.386 27.1202 190.698 26.5071 193.214 26.5071C195.73 26.5071 198.041 27.1202 200.153 28.3466C202.265 29.5729 203.934 31.242 205.161 33.354C206.387 35.466 207 37.7824 207 40.2935C207 42.8045 206.387 45.1209 205.161 47.2329C203.934 49.3449 202.265 51.014 200.153 52.2403C198.041 53.4667 195.725 54.0798 193.214 54.0798C190.703 54.0798 188.386 53.4667 186.274 52.2403Z" fill="#FBC624"/>
<path d="M185.71 25.7333C183.598 24.507 181.929 22.8378 180.702 20.7258C179.476 18.6138 178.863 16.2974 178.863 13.7864C178.863 11.2753 179.476 8.95895 180.702 6.84696C181.929 4.73496 183.598 3.0658 185.71 1.83948C187.822 0.61316 190.133 0 192.649 0C195.165 0 197.477 0.61316 199.589 1.83948C201.701 3.0658 203.37 4.73496 204.596 6.84696C205.822 8.95895 206.436 11.2753 206.436 13.7864C206.436 16.2974 205.822 18.6138 204.596 20.7258C203.37 22.8378 201.701 24.507 199.589 25.7333C197.477 26.9596 195.16 27.5728 192.649 27.5728C190.138 27.5728 187.822 26.9596 185.71 25.7333Z" fill="#FBC624"/>
</svg>
